# xmcd CD database file
#
# Track frame offsets:
#	150
#	23997
#	43602
#	62071
#	82754
#	104032
#	123255
#	139247
#	157543
#	184323
#	240818
#	260018
#	277407
#	297141
#	310434
#
# Disc length: 4449 seconds
#
# Revision: 2
# Processed by: cddbd v1.5.2PL0 Copyright (c) Steve Scherf et al.
# Submitted via: CDex 1.51
#
DISCID=d4115f0f
DTITLE=Simple Minds - Black And White 050505
DYEAR=2005
DGENRE=Pop
TTITLE0=Stay Visible
TTITLE1=Home
TTITLE2=Stranger
TTITLE3=Different World
TTITLE4=Underneath The Ice
TTITLE5=Jeweller
TTITLE6=Black And White
TTITLE7=Kiss The Ground
TTITLE8=Dolphin
TTITLE9=New gold Dream
TTITLE10=Space
TTITLE11=Neon Cowboys
TTITLE12=Happy is the man
TTITLE13=Citizen
TTITLE14=Someone somewhere
EXTD=YEAR: 2005
EXTT0=
EXTT1=
EXTT2=
EXTT3=
EXTT4=
EXTT5=
EXTT6=
EXTT7=
EXTT8=
EXTT9=
EXTT10=
EXTT11=
EXTT12=
EXTT13=
EXTT14=
PLAYORDER=
